<svg width="67" height="39" viewBox="0 0 67 39" fill="none" xmlns="http://www.w3.org/2000/svg">
<path d="M39.7286 14.4608C36.6822 18.5236 33.9956 18.6636 29.8642 18.8736H29.7228C24.6954 18.8708 21.1296 17.0032 21.1296 16.3088C21.1268 15.6494 24.3468 13.933 28.9766 13.7622L29.8026 11.7L29.7228 11.6972C22.8516 11.6972 18.8154 13.884 18.8154 15.9686V18.7686C18.8154 20.0538 19.6302 31.2972 29.4302 31.2972C39.2302 31.2972 40.6302 20.0538 40.6302 18.7686V15.9686C40.6302 15.4212 40.3488 14.8668 39.8126 14.3474L39.7286 14.4608ZM40.6246 7.7828C40.3275 7.56061 39.9543 7.46544 39.5871 7.5182C39.2199 7.57097 38.8886 7.76734 38.666 8.0642L33.6148 14.7968L36.8852 6.6236C36.9568 6.45226 36.9936 6.26838 36.9935 6.08268C36.9933 5.89698 36.9563 5.71316 36.8844 5.54193C36.8125 5.37071 36.7073 5.21549 36.5749 5.08531C36.4424 4.95514 36.2854 4.85262 36.113 4.78372C35.9405 4.71481 35.7561 4.6809 35.5704 4.68397C35.3847 4.68703 35.2015 4.727 35.0314 4.80155C34.8614 4.87611 34.7078 4.98375 34.5797 5.11822C34.4517 5.25269 34.3516 5.41129 34.2854 5.5848L29.7228 16.9836C33.7576 16.7778 35.7106 16.6658 38.2166 13.3282L40.9032 9.7428C41.1262 9.44593 41.222 9.07267 41.1698 8.70511C41.1176 8.33755 40.9215 8.00579 40.6246 7.7828Z" fill="#FD8F00"/>
<path d="M16.9844 6.70312L13.2188 18.125L17.3438 32H10.5469L7.89062 21.1562V32H1.3125V6.70312H7.89062V16.5312L10.8125 6.70312H16.9844Z" fill="#FD8F00"/>
<path d="M65.6094 6.70312V32H59.8594V14.9219L57.5625 32H53.4844L51.0625 15.3125V32H45.3125V6.70312H53.8281C54.0781 8.22396 54.3438 10.0156 54.625 12.0781L55.5312 18.5156L57.0312 6.70312H65.6094Z" fill="#FD8F00"/>
</svg>
