<svg width="24" height="24" viewBox="0 0 24 24" fill="none" xmlns="http://www.w3.org/2000/svg">
<g clip-path="url(#clip0_36_614)">
<path d="M12.5714 0C12.4199 1.39203e-05 12.2745 0.0553267 12.1674 0.153773C12.0602 0.25222 12 0.385738 12 0.524962V2.46589L9.81027 5.48339L9.80915 5.48442C9.80208 5.49446 9.79538 5.50472 9.78906 5.51518C9.7852 5.5216 9.78147 5.52809 9.7779 5.53466C9.77676 5.53738 9.77565 5.54012 9.77455 5.54286C9.75846 5.57209 9.74539 5.60264 9.73549 5.63411C9.73472 5.63684 9.73398 5.63958 9.73326 5.64232C9.72983 5.65418 9.72685 5.66615 9.72433 5.6782C9.72095 5.69381 9.71834 5.70954 9.71652 5.72537C9.71651 5.72673 9.71651 5.7281 9.71652 5.72947C9.71507 5.74447 9.71433 5.75952 9.71429 5.77458C9.71427 5.77663 9.71427 5.77868 9.71429 5.78073V8.92435H0.571429C0.419881 8.92437 0.274545 8.97968 0.167384 9.07813C0.0602239 9.17657 1.51525e-05 9.31009 0 9.44932V22.0484C1.51525e-05 22.1876 0.0602239 22.3211 0.167384 22.4196C0.274545 22.518 0.419881 22.5734 0.571429 22.5734H5.87165C6.30875 23.0315 6.83547 23.3973 7.41518 23.6376C8.89019 24.2491 10.7978 24.1099 12.3069 23.043C12.389 23.0807 12.4797 23.0996 12.5714 23.0983H20H23.4286C23.5801 23.0983 23.7255 23.043 23.8326 22.9446C23.9398 22.8461 24 22.7126 24 22.5734V5.77458C24 5.69308 23.9794 5.61269 23.9397 5.53978L22.2857 2.50075V0.524962C22.2857 0.385738 22.2255 0.25222 22.1183 0.153773C22.0112 0.0553267 21.8658 1.39203e-05 21.7143 0H12.5714ZM13.1429 1.04992H21.1429V2.09985H13.1429V1.04992ZM12.8772 3.14977H20.7902L19.6473 5.24962H11.3538L12.8772 3.14977ZM21.7143 3.7988L22.8571 5.89865V22.0484H20.5714V5.89865L21.7143 3.7988ZM10.8571 6.29954H19.4286V22.0484H13.3594C13.6211 21.7254 13.8592 21.3649 14.0603 20.9554C14.7586 19.5337 14.9961 17.8836 14.7824 16.4286C14.5687 14.9737 13.892 13.6512 12.5848 13.1097C12.258 12.9742 11.918 12.899 11.5703 12.8739C11.3352 12.8569 11.0968 12.8664 10.8571 12.8934V9.44932V6.29954ZM1.14286 9.97428H9.71429V13.1241C9.71439 13.1384 9.71513 13.1528 9.71652 13.1671C9.27458 13.3259 8.83899 13.5372 8.42299 13.7926C7.0942 14.6083 5.90363 15.8641 5.20536 17.2858C4.43173 18.8609 4.52714 20.3508 5.125 21.5234H1.14286V9.97428ZM11.4654 13.9258C11.7001 13.9394 11.9187 13.986 12.115 14.0673C12.8998 14.3925 13.467 15.3248 13.6496 16.5681C13.8322 17.8114 13.6184 19.3033 13.019 20.5238C11.8319 22.941 9.47778 23.3413 7.88505 22.681C6.29227 22.0208 5.05967 20.1342 6.24665 17.7175C6.84609 16.497 7.92254 15.3632 9.05804 14.6661C9.62578 14.3176 10.1934 14.0864 10.7176 13.9833C10.9797 13.9317 11.2307 13.9123 11.4654 13.9258Z" fill="black"/>
</g>
<defs>
<clipPath id="clip0_36_614">
<rect width="24" height="24" fill="white"/>
</clipPath>
</defs>
</svg>
