<svg width="213" height="39" viewBox="0 0 213 39" fill="none" xmlns="http://www.w3.org/2000/svg">
<path d="M87.7286 14.4608C84.6822 18.5236 81.9956 18.6636 77.8642 18.8736H77.7228C72.6954 18.8708 69.1296 17.0032 69.1296 16.3088C69.1268 15.6494 72.3468 13.933 76.9766 13.7622L77.8026 11.7L77.7228 11.6972C70.8516 11.6972 66.8154 13.884 66.8154 15.9686V18.7686C66.8154 20.0538 67.6302 31.2972 77.4302 31.2972C87.2302 31.2972 88.6302 20.0538 88.6302 18.7686V15.9686C88.6302 15.4212 88.3488 14.8668 87.8126 14.3474L87.7286 14.4608ZM88.6246 7.7828C88.3275 7.56061 87.9543 7.46544 87.5871 7.5182C87.2199 7.57097 86.8886 7.76734 86.666 8.0642L81.6148 14.7968L84.8852 6.6236C84.9568 6.45226 84.9936 6.26838 84.9935 6.08268C84.9933 5.89698 84.9563 5.71316 84.8844 5.54193C84.8125 5.37071 84.7073 5.21549 84.5749 5.08531C84.4424 4.95514 84.2854 4.85262 84.113 4.78372C83.9405 4.71481 83.7561 4.6809 83.5704 4.68397C83.3847 4.68703 83.2015 4.727 83.0314 4.80155C82.8614 4.87611 82.7078 4.98375 82.5797 5.11822C82.4517 5.25269 82.3516 5.41129 82.2854 5.5848L77.7228 16.9836C81.7576 16.7778 83.7106 16.6658 86.2166 13.3282L88.9032 9.7428C89.1262 9.44593 89.222 9.07267 89.1698 8.70511C89.1176 8.33755 88.9215 8.00579 88.6246 7.7828Z" fill="#FD8F00"/>
<path d="M16.9844 6.70312L13.2188 18.125L17.3438 32H10.5469L7.89062 21.1562V32H1.3125V6.70312H7.89062V16.5312L10.8125 6.70312H16.9844ZM18.5 6.70312H29.4688V11.7656H25.0781V16.5625H29.1875V21.375H25.0781V26.9375H29.9062V32H18.5V6.70312ZM45.75 14.3594H39.6406V12.4844C39.6406 11.6094 39.5625 11.0521 39.4062 10.8125C39.25 10.5729 38.9896 10.4531 38.625 10.4531C38.2292 10.4531 37.9271 10.6146 37.7188 10.9375C37.5208 11.2604 37.4219 11.75 37.4219 12.4062C37.4219 13.25 37.5365 13.8854 37.7656 14.3125C37.9844 14.7396 38.6042 15.2552 39.625 15.8594C42.5521 17.599 44.3958 19.026 45.1562 20.1406C45.9167 21.2552 46.2969 23.0521 46.2969 25.5312C46.2969 27.3333 46.0833 28.6615 45.6562 29.5156C45.2396 30.3698 44.4271 31.0885 43.2188 31.6719C42.0104 32.2448 40.6042 32.5312 39 32.5312C37.2396 32.5312 35.7344 32.1979 34.4844 31.5312C33.2448 30.8646 32.4323 30.0156 32.0469 28.9844C31.6615 27.9531 31.4688 26.4896 31.4688 24.5938V22.9375H37.5781V26.0156C37.5781 26.9635 37.6615 27.5729 37.8281 27.8438C38.0052 28.1146 38.3125 28.25 38.75 28.25C39.1875 28.25 39.5104 28.0781 39.7188 27.7344C39.9375 27.3906 40.0469 26.8802 40.0469 26.2031C40.0469 24.7135 39.8438 23.7396 39.4375 23.2812C39.0208 22.8229 37.9948 22.0573 36.3594 20.9844C34.724 19.901 33.6406 19.1146 33.1094 18.625C32.5781 18.1354 32.1354 17.4583 31.7812 16.5938C31.4375 15.7292 31.2656 14.625 31.2656 13.2812C31.2656 11.3438 31.5104 9.92708 32 9.03125C32.5 8.13542 33.3021 7.4375 34.4062 6.9375C35.5104 6.42708 36.8438 6.17188 38.4062 6.17188C40.1146 6.17188 41.5677 6.44792 42.7656 7C43.974 7.55208 44.7708 8.25 45.1562 9.09375C45.5521 9.92708 45.75 11.349 45.75 13.3594V14.3594ZM64.0469 6.70312L60.2812 18.125L64.4062 32H57.6094L54.9531 21.1562V32H48.375V6.70312H54.9531V16.5312L57.875 6.70312H64.0469Z" fill="#FD8F00"/>
<path d="M108 6.70312V32H102.234L98.8125 20.5V32H93.3125V6.70312H98.8125L102.5 18.0938V6.70312H108ZM142.266 6.70312V32H136.516V14.9219L134.219 32H130.141L127.719 15.3125V32H121.969V6.70312H130.484C130.734 8.22396 131 10.0156 131.281 12.0781L132.188 18.5156L133.688 6.70312H142.266ZM156.266 6.70312L160.031 32H153.297L152.969 27.4531H150.609L150.219 32H143.406L146.75 6.70312H156.266ZM152.781 22.9688C152.448 20.1042 152.115 16.5677 151.781 12.3594C151.115 17.1927 150.698 20.7292 150.531 22.9688H152.781ZM175.844 6.70312V32H170.078L166.656 20.5V32H161.156V6.70312H166.656L170.344 18.0938V6.70312H175.844ZM193.594 16.0156H187.016V13.7188C187.016 12.2708 186.953 11.3646 186.828 11C186.703 10.6354 186.406 10.4531 185.938 10.4531C185.531 10.4531 185.255 10.6094 185.109 10.9219C184.964 11.2344 184.891 12.0365 184.891 13.3281V25.4688C184.891 26.6042 184.964 27.3542 185.109 27.7188C185.255 28.0729 185.547 28.25 185.984 28.25C186.464 28.25 186.786 28.0469 186.953 27.6406C187.13 27.2344 187.219 26.4427 187.219 25.2656V22.2656H185.891V18.4219H193.594V32H189.453L188.844 30.1875C188.396 30.9688 187.828 31.5573 187.141 31.9531C186.464 32.3385 185.661 32.5312 184.734 32.5312C183.63 32.5312 182.594 32.2656 181.625 31.7344C180.667 31.1927 179.938 30.526 179.438 29.7344C178.938 28.9427 178.625 28.1146 178.5 27.25C178.375 26.375 178.312 25.0677 178.312 23.3281V15.8125C178.312 13.3958 178.443 11.6406 178.703 10.5469C178.964 9.45312 179.708 8.45312 180.938 7.54688C182.177 6.63021 183.776 6.17188 185.734 6.17188C187.661 6.17188 189.26 6.56771 190.531 7.35938C191.802 8.15104 192.63 9.09375 193.016 10.1875C193.401 11.2708 193.594 12.849 193.594 14.9219V16.0156ZM196.156 6.70312H207.125V11.7656H202.734V16.5625H206.844V21.375H202.734V26.9375H207.562V32H196.156V6.70312Z" fill="#FD8F00"/>
</svg>
