<svg width="32" height="32" viewBox="0 0 32 32" fill="none" xmlns="http://www.w3.org/2000/svg">
<path fill-rule="evenodd" clip-rule="evenodd" d="M11 12C11 9.23857 13.2386 7 16 7C18.7615 7 21 9.23857 21 12C21 14.7615 18.7615 17 16 17C13.2386 17 11 14.7615 11 12ZM16 9C14.3432 9 13 10.3431 13 12C13 13.6568 14.3432 15 16 15C17.6568 15 19 13.6568 19 12C19 10.3431 17.6568 9 16 9Z" fill="#FD8F00"/>
<path fill-rule="evenodd" clip-rule="evenodd" d="M1.66663 16.0001C1.66663 8.084 8.08388 1.66675 16 1.66675C23.9161 1.66675 30.3333 8.084 30.3333 16.0001C30.3333 23.9162 23.9161 30.3334 16 30.3334C8.08388 30.3334 1.66663 23.9162 1.66663 16.0001ZM16 3.66675C9.18845 3.66675 3.66663 9.18857 3.66663 16.0001C3.66663 19.3942 5.03765 22.4681 7.25609 24.6981C7.49663 23.4006 7.96921 22.1773 8.91779 21.1935C10.3367 19.7221 12.6055 19.0001 16 19.0001C19.3942 19.0001 21.6632 19.7221 23.082 21.1935C24.0306 22.1773 24.5032 23.4007 24.7437 24.6982C26.9622 22.4682 28.3333 19.3942 28.3333 16.0001C28.3333 9.18857 22.8114 3.66675 16 3.66675ZM22.9249 26.2073C22.789 24.5914 22.4381 23.4071 21.6424 22.5818C20.7764 21.6838 19.1718 21.0001 16 21.0001C12.8279 21.0001 11.2234 21.6838 10.3575 22.5818C9.56165 23.4071 9.21077 24.5913 9.07492 26.2071C11.0491 27.5491 13.4329 28.3334 16 28.3334C18.5669 28.3334 20.9508 27.5491 22.9249 26.2073Z" fill="#FD8F00"/>
</svg>
