<svg width="32" height="32" viewBox="0 0 32 32" fill="none" xmlns="http://www.w3.org/2000/svg">
<path fill-rule="evenodd" clip-rule="evenodd" d="M10.9999 12C10.9999 9.23857 13.2385 7 15.9999 7C18.7614 7 20.9999 9.23857 20.9999 12C20.9999 14.7615 18.7614 17 15.9999 17C13.2385 17 10.9999 14.7615 10.9999 12ZM15.9999 9C14.3431 9 12.9999 10.3431 12.9999 12C12.9999 13.6568 14.3431 15 15.9999 15C17.6567 15 18.9999 13.6568 18.9999 12C18.9999 10.3431 17.6567 9 15.9999 9Z" fill="black"/>
<path fill-rule="evenodd" clip-rule="evenodd" d="M1.66663 16C1.66663 8.08392 8.08388 1.66667 16 1.66667C23.9161 1.66667 30.3333 8.08392 30.3333 16C30.3333 23.9161 23.9161 30.3333 16 30.3333C8.08388 30.3333 1.66663 23.9161 1.66663 16ZM16 3.66667C9.18845 3.66667 3.66663 9.18849 3.66663 16C3.66663 19.3941 5.03765 22.468 7.25609 24.698C7.49663 23.4005 7.96921 22.1772 8.91779 21.1935C10.3367 19.722 12.6055 19 16 19C19.3942 19 21.6632 19.722 23.082 21.1935C24.0306 22.1772 24.5032 23.4007 24.7437 24.6981C26.9622 22.4681 28.3333 19.3941 28.3333 16C28.3333 9.18849 22.8114 3.66667 16 3.66667ZM22.9249 26.2072C22.789 24.5913 22.4381 23.4071 21.6424 22.5817C20.7764 21.6837 19.1718 21 16 21C12.8279 21 11.2234 21.6837 10.3575 22.5817C9.56165 23.4071 9.21077 24.5912 9.07492 26.2071C11.0491 27.5491 13.4329 28.3333 16 28.3333C18.5669 28.3333 20.9508 27.5491 22.9249 26.2072Z" fill="black"/>
</svg>
