<svg width="48" height="48" viewBox="0 0 48 48" fill="none" xmlns="http://www.w3.org/2000/svg">
<path fill-rule="evenodd" clip-rule="evenodd" d="M16.4999 18C16.4999 13.8579 19.8578 10.5 23.9999 10.5C28.1421 10.5 31.4999 13.8579 31.4999 18C31.4999 22.1422 28.1421 25.5 23.9999 25.5C19.8578 25.5 16.4999 22.1422 16.4999 18ZM23.9999 13.5C21.5147 13.5 19.4999 15.5147 19.4999 18C19.4999 20.4852 21.5147 22.5 23.9999 22.5C26.4851 22.5 28.4999 20.4852 28.4999 18C28.4999 15.5147 26.4851 13.5 23.9999 13.5Z" fill="#FD8F00"/>
<path fill-rule="evenodd" clip-rule="evenodd" d="M2.49994 24C2.49994 12.1259 12.1258 2.5 23.9999 2.5C35.8741 2.5 45.4999 12.1259 45.4999 24C45.4999 35.8742 35.8741 45.5 23.9999 45.5C12.1258 45.5 2.49994 35.8742 2.49994 24ZM23.9999 5.5C13.7827 5.5 5.49994 13.7827 5.49994 24C5.49994 29.0912 7.55648 33.702 10.8841 37.047C11.2449 35.1008 11.9538 33.2658 13.3767 31.7902C15.505 29.583 18.9083 28.5 23.9999 28.5C29.0913 28.5 32.4947 29.583 34.6229 31.7902C36.0459 33.2658 36.7547 35.101 37.1155 37.0472C40.4433 33.7022 42.4999 29.0912 42.4999 24C42.4999 13.7827 34.2171 5.5 23.9999 5.5ZM34.3873 39.3108C34.1835 36.887 33.6571 35.1106 32.4635 33.8726C31.1645 32.5256 28.7577 31.5 23.9999 31.5C19.2419 31.5 16.8352 32.5256 15.5362 33.8726C14.3425 35.1106 13.8162 36.8868 13.6124 39.3106C16.5736 41.3236 20.1493 42.5 23.9999 42.5C27.8503 42.5 31.4261 41.3236 34.3873 39.3108Z" fill="#FD8F00"/>
</svg>
