<svg width="32" height="32" viewBox="0 0 32 32" fill="none" xmlns="http://www.w3.org/2000/svg">
<path d="M9.28057 10.521L9.28051 13.3103C9.28051 13.812 9.13763 14.2201 8.86719 14.4905C8.79913 14.5586 8.72226 14.6184 8.63744 14.6701V10.5211H6.73638V14.6699C6.65163 14.6183 6.57488 14.5584 6.50682 14.4904C6.23644 14.2201 6.09351 13.812 6.09357 13.3102V10.5212H4.19244V13.3102C4.19238 14.3271 4.52788 15.2001 5.16257 15.8347C5.58907 16.2612 6.12344 16.5517 6.73632 16.6971V25.0467H8.63738V16.6971C9.25044 16.5518 9.78494 16.2611 10.2114 15.8348C10.8461 15.2002 11.1816 14.3272 11.1816 13.3103L11.1816 10.5211L9.28057 10.521Z" fill="#FD8F00"/>
<path d="M24.3129 10.2041C22.6634 10.2042 21.3214 11.5462 21.3214 13.1956V15.4259C21.3214 16.7431 22.1776 17.8634 23.3625 18.2616V25.0465H25.2636V18.2617C26.4484 17.8635 27.3046 16.7432 27.3045 15.426L27.3046 13.1954C27.3043 11.5461 25.9623 10.2042 24.3129 10.2041ZM25.4035 15.426C25.4035 16.0272 24.9144 16.5164 24.3131 16.5164C23.7118 16.5164 23.2226 16.0272 23.2226 15.426V13.1957C23.2226 12.5945 23.7118 12.1054 24.313 12.1053C24.9143 12.1054 25.4034 12.5945 25.4036 13.1956L25.4035 15.426Z" fill="#FD8F00"/>
<path d="M29.6094 1.77783L18.5863 4.44746C17.4363 4.71083 16.5889 5.15789 16 5.81258C15.4111 5.15789 14.5638 4.71089 13.4137 4.44752L2.39056 1.77783L0 5.83352V27.1119L14.2487 29.7756L14.3352 29.7918H17.6647L32 27.112V5.83352L29.6094 1.77783ZM13.4727 27.6966L1.90106 25.5333V7.23746L13.4727 9.40077V27.6966ZM14.5114 7.66089L2.45775 5.40758L3.31269 3.95721L12.9724 6.29658L12.9846 6.29952C14.1731 6.57083 14.7049 7.02877 14.9202 7.66096L14.5114 7.66089ZM16.626 27.8907H15.3738V9.56202H16.626V27.8907ZM17.4886 7.66096H17.0798C17.2951 7.02871 17.8269 6.57077 19.0154 6.29946L28.6873 3.95714L29.5422 5.40752L17.4886 7.66096ZM30.0989 25.5333L18.5272 27.6966V9.40077L30.0989 7.23746V25.5333Z" fill="#FD8F00"/>
</svg>
