<svg width="32" height="32" viewBox="0 0 32 32" fill="none" xmlns="http://www.w3.org/2000/svg">
<path d="M9.28051 10.5209L9.28045 13.3102C9.28045 13.8119 9.13757 14.22 8.86713 14.4904C8.79907 14.5585 8.7222 14.6183 8.63738 14.67V10.521H6.73632V14.6698C6.65157 14.6182 6.57482 14.5583 6.50676 14.4903C6.23638 14.22 6.09345 13.8119 6.09351 13.3102V10.5211H4.19238V13.3101C4.19232 14.327 4.52782 15.2 5.16251 15.8347C5.58901 16.2611 6.12338 16.5517 6.73626 16.697V25.0466H8.63732V16.697C9.25038 16.5517 9.78488 16.261 10.2113 15.8347C10.846 15.2001 11.1815 14.3272 11.1815 13.3102L11.1816 10.521L9.28051 10.5209Z" fill="black"/>
<path d="M24.313 10.2041C22.6634 10.2042 21.3214 11.5462 21.3214 13.1956V15.4258C21.3215 16.7431 22.1777 17.8634 23.3625 18.2616V25.0465H25.2636V18.2617C26.4484 17.8635 27.3046 16.7432 27.3045 15.426L27.3046 13.1953C27.3043 11.5461 25.9623 10.2042 24.313 10.2041ZM25.4035 15.426C25.4035 16.0272 24.9144 16.5163 24.3132 16.5164C23.7118 16.5163 23.2226 16.0272 23.2226 15.426V13.1957C23.2226 12.5945 23.7118 12.1053 24.313 12.1053C24.9143 12.1053 25.4035 12.5945 25.4036 13.1956L25.4035 15.426Z" fill="black"/>
<path d="M29.6094 1.77778L18.5863 4.4474C17.4363 4.71078 16.5889 5.15784 16 5.81253C15.4111 5.15784 14.5638 4.71084 13.4137 4.44747L2.39056 1.77778L0 5.83347V27.1118L14.2487 29.7755L14.3352 29.7918H17.6647L32 27.1119V5.83347L29.6094 1.77778ZM13.4727 27.6965L1.90106 25.5332V7.2374L13.4727 9.40072V27.6965ZM14.5114 7.66084L2.45775 5.40753L3.31269 3.95715L12.9724 6.29653L12.9846 6.29947C14.1731 6.57078 14.7049 7.02872 14.9202 7.6609L14.5114 7.66084ZM16.626 27.8907H15.3738V9.56197H16.626V27.8907ZM17.4886 7.6609H17.0798C17.2951 7.02865 17.8269 6.57072 19.0154 6.2994L28.6873 3.95709L29.5422 5.40747L17.4886 7.6609ZM30.0989 25.5332L18.5272 27.6965V9.40072L30.0989 7.2374V25.5332Z" fill="black"/>
</svg>
