<svg width="16" height="16" viewBox="0 0 16 16" fill="none" xmlns="http://www.w3.org/2000/svg">
<g clip-path="url(#clip0_48_519)">
<path fill-rule="evenodd" clip-rule="evenodd" d="M8 0C12.4183 0 16 3.58172 16 8C16 12.4183 12.4183 16 8 16C3.58172 16 0 12.4183 0 8C0 3.58172 3.58172 0 8 0ZM8 4.5C7.72386 4.5 7.5 4.72386 7.5 5V8C7.5 8.15913 7.57434 8.3009 7.69054 8.39211C7.70328 8.4085 7.71718 8.42428 7.73223 8.43934L10.5607 11.2678C10.7559 11.463 11.0725 11.463 11.2678 11.2678C11.463 11.0725 11.463 10.7559 11.2678 10.5607L8.49992 7.79236L8.5 5C8.5 4.72386 8.27614 4.5 8 4.5Z" fill="#FD8F00"/>
</g>
<defs>
<clipPath id="clip0_48_519">
<rect width="16" height="16" fill="white"/>
</clipPath>
</defs>
</svg>
